Coordinates
version=1
nRows=10
nColumns=38
inDegrees=yes

Units are S.I. units (second, meters, Newtons, ...)
Angles are in degrees.

endheader
time	pelvis_tilt	pelvis_list	pelvis_rotation	pelvis_tx	pelvis_ty	pelvis_tz	hip_flexion_r	hip_adduction_r	hip_rotation_r	knee_angle_r	ankle_angle_r	subtalar_angle_r	mtp_angle_r	hip_flexion_l	hip_adduction_l	hip_rotation_l	knee_angle_l	ankle_angle_l	subtalar_angle_l	mtp_angle_l	lumbar_extension	lumbar_bending	lumbar_rotation	arm_flex_r	arm_add_r	arm_rot_r	elbow_flex_r	pro_sup_r	wrist_flex_r	wrist_dev_r	arm_flex_l	arm_add_l	arm_rot_l	elbow_flex_l	pro_sup_l	wrist_flex_l	wrist_dev_l
      2.08000000	      0.61522413	     -1.32616008	      6.33389319	      0.94731511	      1.04759815	     -0.23756070	      7.32223516	      3.95092807	    -10.80650223	    -13.14157972	      3.22891111	     -9.83497561	      0.00000000	     14.75741026	     -3.05162989	      0.99819328	    -61.18973066	     -0.08858851	     -2.37578821	      0.00000000	     -9.25201964	      2.11256606	     -1.11898248	      6.45722946	     -8.06595305	     51.51168868	     22.40148042	     44.91813659	      0.00000000	      0.00000000	     -1.93481767	     -7.42904226	     40.71970930	     29.30668136	     44.91813659	      0.00000000	      0.00000000
      2.09000000	      0.44307839	     -1.05125533	      5.93460741	      0.95925164	      1.04833672	     -0.23617040	      6.51970463	      3.84854666	    -10.42526044	    -12.68116634	      3.68160198	     -9.49567858	      0.00000000	     16.19352951	     -2.76723193	      0.31249119	    -60.54972202	      0.86858865	     -2.47385741	      0.00000000	     -9.20894416	      1.60671875	     -0.68510936	      6.79014702	     -8.10908398	     51.53774882	     22.57914142	     44.91848333	      0.00000000	      0.00000000	     -2.11278615	     -7.49188803	     40.75837239	     29.26836889	     44.91848333	      0.00000000	      0.00000000
      2.10000000	      0.32677413	     -0.73443595	      5.47931986	      0.97110661	      1.04885559	     -0.23475272	      5.67921763	      3.69891263	    -10.05851925	    -12.27855641	      4.29024044	     -9.18444919	      0.00000000	     17.46519646	     -2.47521844	     -0.43049065	    -59.61247120	      1.68794352	     -2.69426822	      0.00000000	     -9.24203501	      1.05633183	     -0.14490094	      7.10276643	     -8.24375936	     51.65429076	     22.98922253	     44.91946795	      0.00000000	      0.00000000	     -2.21099079	     -7.56059245	     40.82558782	     29.28236919	     44.91946795	      0.00000000	      0.00000000
      2.11000000	      0.23846936	     -0.48788009	      5.03067037	      0.98299092	      1.04906602	     -0.23339461	      4.73830624	      3.63058056	     -9.67643182	    -11.72089128	      4.88019054	     -8.93743921	      0.00000000	     18.65430386	     -2.29412429	     -1.20382964	    -58.43474312	      2.56680299	     -2.92937895	      0.00000000	     -9.28984814	      0.60470309	      0.36091235	      7.46079562	     -8.36840310	     51.73314394	     23.35321402	     44.92036028	      0.00000000	      0.00000000	     -2.31477333	     -7.61347112	     40.86383462	     29.29780297	     44.92036028	      0.00000000	      0.00000000
      2.12000000	      0.11906035	     -0.38781737	      4.58916012	      0.99485613	      1.04909669	     -0.23203697	      3.88905180	      3.68659471	     -9.40962860	    -11.20957030	      5.24474761	     -8.66703066	      0.00000000	     19.79877342	     -2.23366414	     -1.82202476	    -56.95043311	      3.16715456	     -3.24880151	      0.00000000	     -9.27570817	      0.32236037	      0.82577993	      7.87085752	     -8.45821050	     51.73884302	     23.54117805	     44.92071892	      0.00000000	      0.00000000	     -2.53042082	     -7.61006837	     40.89087899	     29.25335081	     44.92071892	      0.00000000	      0.00000000
      2.13000000	      0.14470475	     -0.18809660	      4.10723115	      1.00677393	      1.04899127	     -0.23077437	      2.94822079	      3.62773336	     -9.25553858	    -10.80290527	      6.19729761	     -8.24303858	      0.00000000	     20.66826282	     -2.07483713	     -2.51296475	    -55.21348181	      3.51699385	     -3.84330156	      0.00000000	     -9.45361282	     -0.05928848	      1.43834249	      8.22843970	     -8.61285918	     51.81610840	     23.93907949	     44.92150991	      0.00000000	      0.00000000	     -2.59514530	     -7.62108449	     40.90014531	     29.23450767	     44.92150991	      0.00000000	      0.00000000
      2.14000000	      0.07791525	     -0.06971737	      3.68359096	      1.01866625	      1.04848429	     -0.22967900	      2.05895067	      3.63838856	     -8.83956144	    -10.43668844	      6.54878076	     -8.11737269	      0.00000000	     21.65555591	     -1.97120894	     -3.02993624	    -53.37288339	      3.71713207	     -4.18553946	      0.00000000	     -9.49470753	     -0.32527922	      1.89680164	      8.62705748	     -8.74370509	     51.84625976	     24.23240073	     44.92202166	      0.00000000	      0.00000000	     -2.64770001	     -7.62152772	     40.90306051	     29.22368720	     44.92202166	      0.00000000	      0.00000000
      2.15000000	      0.12808987	      0.11302778	      3.22209129	      1.03069352	      1.04789031	     -0.22864109	      1.03868335	      3.56005657	     -8.54733853	    -10.01559349	      7.14768450	     -7.87877378	      0.00000000	     22.33989833	     -1.89358053	     -3.76765848	    -51.17076901	      4.26686296	     -4.29960218	      0.00000000	     -9.65522295	     -0.65029712	      2.42253232	      8.96684967	     -8.94741977	     51.93169208	     24.72680190	     44.92287994	      0.00000000	      0.00000000	     -2.65232036	     -7.61126340	     40.89234010	     29.21275954	     44.92287994	      0.00000000	      0.00000000
      2.16000000	      0.11014728	      0.22093253	      2.78920810	      1.04273039	      1.04709662	     -0.22770155	      0.08526681	      3.53881551	     -8.11851992	     -9.56208123	      7.65156351	     -7.70148416	      0.00000000	     23.27528338	     -1.98975467	     -4.85079312	    -49.03564275	      3.67912194	     -5.07710182	      0.00000000	     -9.72472339	     -0.88972208	      2.91496475	      9.27381534	     -9.27043088	     52.05552685	     25.54232889	     44.92445492	      0.00000000	      0.00000000	     -2.64701962	     -7.57782464	     40.86399625	     29.17658307	     44.92445492	      0.00000000	      0.00000000
      2.17000000	      0.12246226	      0.18737557	      2.38141177	      1.05487172	      1.04603831	     -0.22683521	     -0.88332697	      3.65726570	     -7.76149723	     -9.17816143	      8.19160467	     -7.53134198	      0.00000000	     23.61487302	     -1.99665862	     -5.03260251	    -46.14241647	      4.51238835	     -4.76319964	      0.00000000	     -9.80841395	     -0.96557112	      3.40486180	      9.58477286	     -9.49337941	     52.06622225	     25.99734723	     44.92542291	      0.00000000	      0.00000000	     -2.65950402	     -7.50084473	     40.85080309	     29.14213185	     44.92542291	      0.00000000	      0.00000000
